<svg width="431" height="400" fill="none" xmlns="http://www.w3.org/2000/svg"><g clip-path="url(#clip0_119_2197)"><path d="M73.486 95.054h75.374V0H73.486v95.054zm0-95.054H71.04v95.054h2.446V0z" fill="#DEE8F5"/><path opacity=".05" d="M73.486 0H71.04v95.054h2.446V0zm13.73 77.738h47.914V17.315H87.217v60.423z" fill="#292A2E"/><path opacity=".03" d="M87.216 77.738h2.497V17.315h-2.497v60.423z" fill="#292A2E"/><path d="M11.842 178.703h61.643V118.43H11.842v60.273z" fill="#DEE8F5"/><path opacity=".05" d="M23.07 167.723h39.186v-38.314H23.071v38.314z" fill="#292A2E"/><path d="M11.842 118.429H9.397v60.273h2.445v-60.273z" fill="#DEE8F5"/><path opacity=".05" d="M11.842 118.429H9.397v60.273h2.445v-60.273z" fill="#292A2E"/><path opacity=".03" d="M23.071 167.723h2.497v-38.314h-2.497v38.314z" fill="#292A2E"/><path d="M407.437 3.387H229.985v171.928h177.452V3.387zm2.033 0h-2.033v171.928h2.033V3.387z" fill="#DEE8F5"/><path opacity=".05" d="M409.47 3.387h-2.033v171.928h2.033V3.387zM364.448 121.86V76.878h-38.031v26.133h-58.91v46.273H242.47v26.031H398.9V121.86h-34.452z" fill="#292A2E"/><path opacity=".34" d="M358.994 81.761h-27.695v4.884h27.695v-4.884zm0 10.12h-27.695v4.885h27.695v-4.884zm0 10.121h-27.695v4.884h27.695v-4.884zm34.995 24.598h-5.104v4.884h5.104V126.6zm0 10.121h-5.104v4.884h5.104v-4.884zm0 10.12h-5.104v4.884h5.104v-4.884zm-9.443-20.241h-5.104v4.884h5.104V126.6zm0 10.121h-5.104v4.884h5.104v-4.884zm0 10.12h-5.104v4.884h5.104v-4.884zm-9.188-20.241h-5.104v4.884h5.104V126.6zm0 10.121h-5.104v4.884h5.104v-4.884zm0 10.12h-5.104v4.884h5.104v-4.884z" fill="#FFFFFA"/><path d="M407.437 88.387h-35.706v-85h-2.953v85h-96.447v-85h-2.953v85h-39.393v2.86h39.393v84.068h2.953V91.248h96.447v84.067h2.953V91.248h35.706v-2.861z" fill="#fff"/><path d="M414.506 175.107h-191.59v5.718h191.59v-5.718z" fill="#DEE8F5"/><path opacity=".1" d="M414.506 175.107h-191.59v5.718h191.59v-5.718zm2.766 0h-2.766v5.718h2.766v-5.718z" fill="#292A2E"/><path opacity=".1" d="M417.272 175.107h-2.766v5.718h2.766v-5.718z" fill="#292A2E"/><path d="M79.228 268.12H44.04v9.92h35.188v-9.92z" fill="#DEE8F5"/><path opacity=".05" d="M53.376 268.12h-4.61v9.92h4.61v-9.92z" fill="#292A2E"/><path d="M74.731 270.276h-19.17v5.879h19.17v-5.879z" fill="#fff"/><path d="M107.295 269.414L74.6 255.578l-4.098 9.091 32.695 13.835 4.098-9.09z" fill="#DEE8F5"/><path opacity=".05" d="M107.295 269.414L74.6 255.578l-4.098 9.091 32.695 13.835 4.098-9.09z" fill="#292A2E"/><path d="M102.904 267.556l-4.284-1.813-4.098 9.09 4.284 1.813 4.098-9.09zm-7.203-.696l-17.814-7.538-2.428 5.387 17.813 7.538 2.428-5.387z" fill="#fff"/><path opacity=".05" d="M107.356 393.783h-8.842v5.721h8.842v-5.721zm-90.407 0H8.106v5.721h8.843v-5.721z" fill="#292A2E"/><path d="M115.463 278.505H0v115.084h115.463V278.505z" fill="#DEE8F5"/><path opacity=".03" d="M115.463 278.505H0v115.084h115.463V278.505z" fill="#292A2E"/><path d="M136.86 278.505H21.397v115.084H136.86V278.505z" fill="#DEE8F5"/><path opacity=".05" d="M128.754 393.783h-8.843v5.721h8.843v-5.721zm-90.408 0h-8.843v5.721h8.843v-5.721z" fill="#292A2E"/><path opacity=".7" d="M132.526 283.895H25.731v22.11h106.795v-22.11zm0 27.522H25.731v22.11h106.795v-22.11zm0 27.521H25.731v22.11h106.795v-22.11z" fill="#fff"/><path opacity=".05" d="M79.129 298.043c1.763 0 3.193-1.385 3.193-3.093 0-1.709-1.43-3.094-3.193-3.094-1.764 0-3.194 1.385-3.194 3.094 0 1.708 1.43 3.093 3.194 3.093zm0 27.522c1.763 0 3.193-1.385 3.193-3.093 0-1.709-1.43-3.094-3.193-3.094-1.764 0-3.194 1.385-3.194 3.094 0 1.708 1.43 3.093 3.194 3.093zm0 27.522c1.763 0 3.193-1.385 3.193-3.093 0-1.709-1.43-3.094-3.193-3.094-1.764 0-3.194 1.385-3.194 3.094 0 1.708 1.43 3.093 3.194 3.093z" fill="#292A2E"/><path opacity=".7" d="M132.526 367.08H25.731v22.11h106.795v-22.11z" fill="#fff"/><path opacity=".05" d="M79.129 381.229c1.763 0 3.193-1.385 3.193-3.094 0-1.708-1.43-3.093-3.193-3.093-1.764 0-3.194 1.385-3.194 3.093 0 1.709 1.43 3.094 3.194 3.094z" fill="#292A2E"/><path d="M278.936 307.552H52.45c-3.057 0-5.989-1.177-8.15-3.271-2.162-2.095-3.377-4.935-3.377-7.897l7.886-247.71H297.91l-7.448 247.71c0 2.962-1.214 5.802-3.376 7.897-2.161 2.094-5.093 3.271-8.15 3.271z" fill="#292A2E"/><path opacity=".9" d="M278.936 307.552H52.45c-3.057 0-5.989-1.177-8.15-3.271-2.162-2.095-3.377-4.935-3.377-7.897l7.886-247.71H297.91l-7.448 247.71c0 2.962-1.214 5.802-3.376 7.897-2.161 2.094-5.093 3.271-8.15 3.271z" fill="#fff"/><path d="M287.259 24.113H60.773c-3.172.003-6.213 1.226-8.456 3.399-2.243 2.173-3.505 5.12-3.509 8.193l-.438 13.393h249.978l.876-13.393c-.004-3.074-1.265-6.02-3.508-8.193-2.243-2.173-5.284-3.396-8.457-3.4z" fill="#0C0C0C"/><path d="M291.64 24.113H62.525c-3.172.003-6.213 1.226-8.456 3.399-2.243 2.173-3.505 5.12-3.509 8.193v13.393h253.045V35.705c-.004-3.074-1.266-6.02-3.509-8.193s-5.284-3.396-8.456-3.4z" fill="#292A2E"/><path d="M50.999 48.674h252.168v251.954c0 2.962-1.214 5.803-3.376 7.897-2.162 2.094-5.093 3.271-8.15 3.271H62.525c-3.057 0-5.988-1.177-8.15-3.271s-3.376-4.935-3.376-7.897V48.674z" fill="#fff"/><path d="M291.64 312.221H62.525c-3.172-.004-6.213-1.226-8.456-3.399-2.243-2.174-3.505-5.12-3.509-8.193V48.249h253.045v252.38c-.004 3.073-1.266 6.019-3.509 8.192-2.243 2.174-5.284 3.396-8.456 3.4zM51.437 49.098V300.63c.003 2.848 1.172 5.579 3.251 7.593 2.08 2.014 4.898 3.146 7.837 3.15H291.64c2.94-.004 5.758-1.136 7.837-3.151 2.079-2.014 3.248-4.744 3.252-7.592V49.099H51.437z" fill="#C4C4C4"/><path d="M81.3 14.081c-2.745.003-5.377 1.06-7.318 2.942-1.941 1.88-3.033 4.43-3.036 7.09h.876c0-1.763.522-3.488 1.507-4.97a9.398 9.398 0 0 1 4.042-3.39c1.655-.73 3.493-.983 5.293-.73a9.617 9.617 0 0 1 4.858 2.16 9.156 9.156 0 0 1 2.88 4.365 8.91 8.91 0 0 1-.017 5.18 9.16 9.16 0 0 1-2.907 4.346 9.623 9.623 0 0 1-4.872 2.132 1.437 1.437 0 0 0-.73-.678 1.5 1.5 0 0 0-1.008-.054c-.333.099-.617.31-.803.595-.186.284-.26.624-.21.958a1.4 1.4 0 0 0 .486.859c.262.22.598.343.945.346.348.002.685-.116.95-.334a1.4 1.4 0 0 0 .497-.852c2.597-.352 4.96-1.644 6.61-3.617a9.822 9.822 0 0 0 2.287-7.014c-.182-2.534-1.35-4.906-3.267-6.639a10.537 10.537 0 0 0-7.064-2.695zm201.919 10.032c-.017-2.65-1.116-5.185-3.056-7.052s-4.563-2.915-7.297-2.915c-2.735 0-5.358 1.048-7.298 2.915-1.94 1.867-3.038 4.402-3.056 7.052h.876a8.97 8.97 0 0 1 1.506-4.97 9.401 9.401 0 0 1 4.043-3.39c1.655-.73 3.493-.983 5.293-.73a9.615 9.615 0 0 1 4.858 2.16 9.151 9.151 0 0 1 2.879 4.365 8.908 8.908 0 0 1-.016 5.18 9.168 9.168 0 0 1-2.907 4.346 9.622 9.622 0 0 1-4.872 2.132 1.438 1.438 0 0 0-.73-.678 1.499 1.499 0 0 0-1.009-.054c-.332.099-.616.31-.802.595a1.37 1.37 0 0 0-.209.958c.05.333.222.638.485.859.262.22.597.343.945.346.348.002.685-.116.95-.334.266-.217.442-.52.497-.852a10.465 10.465 0 0 0 6.374-3.353 9.862 9.862 0 0 0 2.546-6.58zm-27.366 0c0-2.661-1.091-5.213-3.033-7.094-1.941-1.881-4.575-2.938-7.321-2.938-2.746 0-5.379 1.057-7.321 2.938-1.942 1.881-3.032 4.433-3.032 7.093h.876a8.969 8.969 0 0 1 1.506-4.969 9.401 9.401 0 0 1 4.043-3.389c1.655-.73 3.492-.983 5.292-.73a9.616 9.616 0 0 1 4.858 2.16 9.157 9.157 0 0 1 2.879 4.364 8.907 8.907 0 0 1-.016 5.179 9.16 9.16 0 0 1-2.906 4.347 9.622 9.622 0 0 1-4.872 2.132 1.434 1.434 0 0 0-.729-.679 1.5 1.5 0 0 0-1.01-.055c-.332.099-.617.31-.803.595a1.377 1.377 0 0 0 .275 1.818c.263.222.598.345.946.347.348.002.685-.116.951-.333.265-.218.442-.52.497-.853a10.469 10.469 0 0 0 6.374-3.354 9.861 9.861 0 0 0 2.546-6.58zm-27.366 0c-.018-2.65-1.117-5.185-3.057-7.052s-4.563-2.915-7.297-2.915c-2.735 0-5.358 1.048-7.298 2.915-1.94 1.867-3.038 4.402-3.056 7.052h.876a8.98 8.98 0 0 1 1.507-4.97 9.393 9.393 0 0 1 4.042-3.39c1.655-.73 3.493-.983 5.293-.73a9.615 9.615 0 0 1 4.858 2.16 9.151 9.151 0 0 1 2.879 4.365 8.908 8.908 0 0 1-.016 5.18 9.161 9.161 0 0 1-2.907 4.346 9.622 9.622 0 0 1-4.872 2.132 1.44 1.44 0 0 0-.729-.678 1.5 1.5 0 0 0-1.009-.054c-.333.099-.617.31-.803.595a1.375 1.375 0 0 0 .276 1.817c.262.22.597.343.945.346.348.002.685-.116.95-.334.266-.217.442-.52.497-.852a10.465 10.465 0 0 0 6.374-3.353 9.868 9.868 0 0 0 2.547-6.58zm-27.368 0a9.749 9.749 0 0 0-.788-3.84 10.017 10.017 0 0 0-2.244-3.254 10.38 10.38 0 0 0-3.359-2.174 10.645 10.645 0 0 0-7.924 0 10.37 10.37 0 0 0-3.359 2.174 10.02 10.02 0 0 0-2.245 3.255 9.766 9.766 0 0 0-.788 3.838h.876c0-1.762.523-3.487 1.507-4.969a9.398 9.398 0 0 1 4.042-3.389 9.756 9.756 0 0 1 5.293-.73 9.62 9.62 0 0 1 4.858 2.16 9.158 9.158 0 0 1 2.879 4.364 8.907 8.907 0 0 1-.017 5.18 9.159 9.159 0 0 1-2.906 4.346 9.62 9.62 0 0 1-4.872 2.132 1.436 1.436 0 0 0-.729-.678 1.5 1.5 0 0 0-1.009-.054c-.332.099-.617.31-.803.595a1.38 1.38 0 0 0 .276 1.817 1.487 1.487 0 0 0 1.896.013c.265-.218.441-.52.497-.853a10.463 10.463 0 0 0 6.373-3.354 9.861 9.861 0 0 0 2.546-6.58zm-27.366 0c-.018-2.65-1.116-5.185-3.056-7.052s-4.563-2.915-7.298-2.915c-2.734 0-5.358 1.048-7.297 2.915-1.94 1.867-3.039 4.402-3.057 7.052h.877a8.97 8.97 0 0 1 1.506-4.97 9.395 9.395 0 0 1 4.043-3.39 9.75 9.75 0 0 1 5.292-.73 9.618 9.618 0 0 1 4.859 2.16 9.159 9.159 0 0 1 2.879 4.365 8.908 8.908 0 0 1-.016 5.18 9.168 9.168 0 0 1-2.907 4.346 9.626 9.626 0 0 1-4.873 2.132 1.432 1.432 0 0 0-.729-.678 1.5 1.5 0 0 0-1.009-.054c-.332.099-.617.31-.802.595a1.37 1.37 0 0 0-.209.958c.05.333.222.638.484.859.263.22.598.343.946.346.347.002.684-.116.95-.334a1.4 1.4 0 0 0 .497-.852 10.467 10.467 0 0 0 6.374-3.353 9.862 9.862 0 0 0 2.546-6.58zm-27.366 0c0-2.661-1.091-5.213-3.033-7.094-1.942-1.881-4.575-2.938-7.321-2.938-2.746 0-5.38 1.057-7.321 2.938-1.942 1.881-3.033 4.433-3.033 7.093h.876c0-1.762.523-3.487 1.507-4.969a9.398 9.398 0 0 1 4.042-3.389c1.656-.73 3.493-.984 5.293-.73a9.62 9.62 0 0 1 4.858 2.16 9.158 9.158 0 0 1 2.879 4.364 8.916 8.916 0 0 1-.016 5.18 9.168 9.168 0 0 1-2.907 4.346 9.62 9.62 0 0 1-4.872 2.132 1.436 1.436 0 0 0-.729-.678 1.5 1.5 0 0 0-1.009-.054c-.332.099-.617.31-.803.595a1.38 1.38 0 0 0 .276 1.817c.263.22.598.343.946.346.347.002.684-.116.95-.334.265-.217.441-.52.497-.852a10.468 10.468 0 0 0 6.374-3.354 9.871 9.871 0 0 0 2.546-6.58zm-27.367 0c-.018-2.65-1.117-5.185-3.056-7.052-1.94-1.867-4.564-2.915-7.298-2.915-2.735 0-5.358 1.048-7.298 2.915-1.94 1.867-3.038 4.402-3.056 7.052h.876c0-1.763.523-3.488 1.507-4.97a9.398 9.398 0 0 1 4.042-3.39 9.755 9.755 0 0 1 5.293-.73 9.622 9.622 0 0 1 4.859 2.16 9.159 9.159 0 0 1 2.879 4.365 8.917 8.917 0 0 1-.017 5.18 9.154 9.154 0 0 1-2.907 4.346 9.619 9.619 0 0 1-4.872 2.132 1.436 1.436 0 0 0-.729-.678 1.5 1.5 0 0 0-1.009-.054c-.333.099-.617.31-.803.595a1.38 1.38 0 0 0 .276 1.817c.262.22.598.343.945.346.348.002.685-.116.95-.334.266-.217.442-.52.497-.852a10.467 10.467 0 0 0 6.375-3.353 9.872 9.872 0 0 0 2.546-6.58z" fill="#DEE8F5"/><g opacity=".6"><path opacity=".6" d="M81.3 14.081c-2.745.003-5.377 1.06-7.318 2.942-1.941 1.88-3.033 4.43-3.036 7.09h.876c0-1.763.522-3.488 1.507-4.97a9.398 9.398 0 0 1 4.042-3.39c1.655-.73 3.493-.983 5.293-.73a9.617 9.617 0 0 1 4.858 2.16 9.156 9.156 0 0 1 2.88 4.365 8.91 8.91 0 0 1-.017 5.18 9.16 9.16 0 0 1-2.907 4.346 9.623 9.623 0 0 1-4.872 2.132 1.437 1.437 0 0 0-.73-.678 1.5 1.5 0 0 0-1.008-.054c-.333.099-.617.31-.803.595-.186.284-.26.624-.21.958a1.4 1.4 0 0 0 .486.859c.262.22.598.343.945.346.348.002.685-.116.95-.334a1.4 1.4 0 0 0 .497-.852c2.597-.352 4.96-1.644 6.61-3.617a9.822 9.822 0 0 0 2.287-7.014c-.182-2.534-1.35-4.906-3.267-6.639a10.537 10.537 0 0 0-7.064-2.695zm201.919 10.032c-.017-2.65-1.116-5.185-3.056-7.052s-4.563-2.915-7.297-2.915c-2.735 0-5.358 1.048-7.298 2.915-1.94 1.867-3.038 4.402-3.056 7.052h.876a8.97 8.97 0 0 1 1.506-4.97 9.401 9.401 0 0 1 4.043-3.39c1.655-.73 3.493-.983 5.293-.73a9.615 9.615 0 0 1 4.858 2.16 9.151 9.151 0 0 1 2.879 4.365 8.908 8.908 0 0 1-.016 5.18 9.168 9.168 0 0 1-2.907 4.346 9.622 9.622 0 0 1-4.872 2.132 1.438 1.438 0 0 0-.73-.678 1.499 1.499 0 0 0-1.009-.054c-.332.099-.616.31-.802.595a1.37 1.37 0 0 0-.209.958c.05.333.222.638.485.859.262.22.597.343.945.346.348.002.685-.116.95-.334.266-.217.442-.52.497-.852a10.465 10.465 0 0 0 6.374-3.353 9.862 9.862 0 0 0 2.546-6.58zm-27.366 0c0-2.661-1.091-5.213-3.033-7.094-1.941-1.881-4.575-2.938-7.321-2.938-2.746 0-5.379 1.057-7.321 2.938-1.942 1.881-3.032 4.433-3.032 7.093h.876a8.969 8.969 0 0 1 1.506-4.969 9.401 9.401 0 0 1 4.043-3.389c1.655-.73 3.492-.983 5.292-.73a9.616 9.616 0 0 1 4.858 2.16 9.157 9.157 0 0 1 2.879 4.364 8.907 8.907 0 0 1-.016 5.179 9.16 9.16 0 0 1-2.906 4.347 9.622 9.622 0 0 1-4.872 2.132 1.434 1.434 0 0 0-.729-.679 1.5 1.5 0 0 0-1.01-.055c-.332.099-.617.31-.803.595a1.377 1.377 0 0 0 .275 1.818c.263.222.598.345.946.347.348.002.685-.116.951-.333.265-.218.442-.52.497-.853a10.469 10.469 0 0 0 6.374-3.354 9.861 9.861 0 0 0 2.546-6.58zm-27.366 0c-.018-2.65-1.117-5.185-3.057-7.052s-4.563-2.915-7.297-2.915c-2.735 0-5.358 1.048-7.298 2.915-1.94 1.867-3.038 4.402-3.056 7.052h.876a8.98 8.98 0 0 1 1.507-4.97 9.393 9.393 0 0 1 4.042-3.39c1.655-.73 3.493-.983 5.293-.73a9.615 9.615 0 0 1 4.858 2.16 9.151 9.151 0 0 1 2.879 4.365 8.908 8.908 0 0 1-.016 5.18 9.161 9.161 0 0 1-2.907 4.346 9.622 9.622 0 0 1-4.872 2.132 1.44 1.44 0 0 0-.729-.678 1.5 1.5 0 0 0-1.009-.054c-.333.099-.617.31-.803.595a1.375 1.375 0 0 0 .276 1.817c.262.22.597.343.945.346.348.002.685-.116.95-.334.266-.217.442-.52.497-.852a10.465 10.465 0 0 0 6.374-3.353 9.868 9.868 0 0 0 2.547-6.58zm-27.368 0a9.749 9.749 0 0 0-.788-3.84 10.017 10.017 0 0 0-2.244-3.254 10.38 10.38 0 0 0-3.359-2.174 10.645 10.645 0 0 0-7.924 0 10.37 10.37 0 0 0-3.359 2.174 10.02 10.02 0 0 0-2.245 3.255 9.766 9.766 0 0 0-.788 3.838h.876c0-1.762.523-3.487 1.507-4.969a9.398 9.398 0 0 1 4.042-3.389 9.756 9.756 0 0 1 5.293-.73 9.62 9.62 0 0 1 4.858 2.16 9.158 9.158 0 0 1 2.879 4.364 8.907 8.907 0 0 1-.017 5.18 9.159 9.159 0 0 1-2.906 4.346 9.62 9.62 0 0 1-4.872 2.132 1.436 1.436 0 0 0-.729-.678 1.5 1.5 0 0 0-1.009-.054c-.332.099-.617.31-.803.595a1.38 1.38 0 0 0 .276 1.817 1.487 1.487 0 0 0 1.896.013c.265-.218.441-.52.497-.853a10.463 10.463 0 0 0 6.373-3.354 9.861 9.861 0 0 0 2.546-6.58zm-27.366 0c-.018-2.65-1.116-5.185-3.056-7.052s-4.563-2.915-7.298-2.915c-2.734 0-5.358 1.048-7.297 2.915-1.94 1.867-3.039 4.402-3.057 7.052h.877a8.97 8.97 0 0 1 1.506-4.97 9.395 9.395 0 0 1 4.043-3.39 9.75 9.75 0 0 1 5.292-.73 9.618 9.618 0 0 1 4.859 2.16 9.159 9.159 0 0 1 2.879 4.365 8.908 8.908 0 0 1-.016 5.18 9.168 9.168 0 0 1-2.907 4.346 9.626 9.626 0 0 1-4.873 2.132 1.432 1.432 0 0 0-.729-.678 1.5 1.5 0 0 0-1.009-.054c-.332.099-.617.31-.802.595a1.37 1.37 0 0 0-.209.958c.05.333.222.638.484.859.263.22.598.343.946.346.347.002.684-.116.95-.334a1.4 1.4 0 0 0 .497-.852 10.467 10.467 0 0 0 6.374-3.353 9.862 9.862 0 0 0 2.546-6.58zm-27.366 0c0-2.661-1.091-5.213-3.033-7.094-1.942-1.881-4.575-2.938-7.321-2.938-2.746 0-5.38 1.057-7.321 2.938-1.942 1.881-3.033 4.433-3.033 7.093h.876c0-1.762.523-3.487 1.507-4.969a9.398 9.398 0 0 1 4.042-3.389c1.656-.73 3.493-.984 5.293-.73a9.62 9.62 0 0 1 4.858 2.16 9.158 9.158 0 0 1 2.879 4.364 8.916 8.916 0 0 1-.016 5.18 9.168 9.168 0 0 1-2.907 4.346 9.62 9.62 0 0 1-4.872 2.132 1.436 1.436 0 0 0-.729-.678 1.5 1.5 0 0 0-1.009-.054c-.332.099-.617.31-.803.595a1.38 1.38 0 0 0 .276 1.817c.263.22.598.343.946.346.347.002.684-.116.95-.334.265-.217.441-.52.497-.852a10.468 10.468 0 0 0 6.374-3.354 9.871 9.871 0 0 0 2.546-6.58zm-27.367 0c-.018-2.65-1.117-5.185-3.056-7.052-1.94-1.867-4.564-2.915-7.298-2.915-2.735 0-5.358 1.048-7.298 2.915-1.94 1.867-3.038 4.402-3.056 7.052h.876c0-1.763.523-3.488 1.507-4.97a9.398 9.398 0 0 1 4.042-3.39 9.755 9.755 0 0 1 5.293-.73 9.622 9.622 0 0 1 4.859 2.16 9.159 9.159 0 0 1 2.879 4.365 8.917 8.917 0 0 1-.017 5.18 9.154 9.154 0 0 1-2.907 4.346 9.619 9.619 0 0 1-4.872 2.132 1.436 1.436 0 0 0-.729-.678 1.5 1.5 0 0 0-1.009-.054c-.333.099-.617.31-.803.595a1.38 1.38 0 0 0 .276 1.817c.262.22.598.343.945.346.348.002.685-.116.95-.334.266-.217.442-.52.497-.852a10.467 10.467 0 0 0 6.375-3.353 9.872 9.872 0 0 0 2.546-6.58z" fill="#292A2E"/></g><path opacity=".72" d="M279.23 76.177H73.745a.445.445 0 0 1-.31-.125.418.418 0 0 1 0-.6.446.446 0 0 1 .31-.124H279.23c.117 0 .228.044.31.124a.418.418 0 0 1 0 .6.444.444 0 0 1-.31.124zm0 24.062H73.745a.443.443 0 0 1-.31-.124.417.417 0 0 1 0-.6.445.445 0 0 1 .31-.124H279.23c.117 0 .228.044.31.124a.418.418 0 0 1 0 .6.442.442 0 0 1-.31.124zm-115.944 24.064h-89.54a.448.448 0 0 1-.31-.124.42.42 0 0 1 0-.601.448.448 0 0 1 .31-.124h89.54c.116 0 .228.045.31.124a.42.42 0 0 1 0 .601.448.448 0 0 1-.31.124z" fill="#292A2E"/><path d="M377.109 201.613a12.34 12.34 0 0 0 5.563-1.322 11.91 11.91 0 0 0 4.301-3.667 11.445 11.445 0 0 0 2.063-5.178 11.33 11.33 0 0 0-.645-5.516c-.681-1.788-16.635-42.721-19.672-50.305l-22.49 8.828c1.708 4.265 7.895 20.429 12.866 33.45l-8.258-.87-2.599 23.17 27.569 1.344a12.3 12.3 0 0 0 1.302.066z" fill="#4346D5"/><path d="M179.333 144.094l8.313-28.793 195.861 50.691-8.313 28.792-195.861-50.69z" fill="#4346D5"/><path opacity=".5" d="M179.333 144.094l8.313-28.793 195.861 50.691-8.313 28.792-195.861-50.69z" fill="#fff"/><path d="M396.693 200.612l8.312-28.793-21.497-5.825-8.312 28.792 21.497 5.826z" fill="#262626"/><path d="M179.333 144.093s-5.64-6.125-10.678-11.629c-3.994-4.366-7.607-8.342-7.718-8.56-.111-.218 5.316-1.998 11.31-3.877 7.283-2.284 15.4-4.725 15.4-4.725l-8.314 28.791z" fill="#4346D5"/><path opacity=".9" d="M179.333 144.093s-5.64-6.125-10.678-11.629c-3.994-4.366-7.607-8.342-7.718-8.56-.111-.218 5.316-1.998 11.31-3.877 7.283-2.284 15.4-4.725 15.4-4.725l-8.314 28.791z" fill="#fff"/><path d="M168.655 132.464c-3.994-4.366-7.607-8.342-7.718-8.56-.111-.218 5.316-1.998 11.31-3.877l-3.592 12.437z" fill="#262626"/><path d="M181.978 135.144l195.913 50.153-.375 1.315-195.912-50.153.374-1.315zm3.248-11.266l195.913 50.153-.375 1.315-195.913-50.153.375-1.315z" fill="#fff"/><path d="M351.579 381.221s-1.978 9.931-11.577 10.487c-9.599.555-7.518 7.963-7.518 7.963h36.684v-17.756l-17.589-.694z" fill="#4346D5"/><path d="M362.893 200.021s-.115-2.986-.09 3.788c.09 25.266.543 54.125 1.648 71.013 1.778 27.148 6.334 112.74 6.334 112.74l-24.104-.196-23.363-188.371 39.575 1.026z" fill="#262626"/><path d="M335.673 229.815s-.999 18.336-1.183 22.64c-.428 9.955-.577 20.262-.577 31.948l-3.8-30.635s2.779-9.601 5.56-23.953z" fill="#0A0A0A"/><path d="M308.666 381.221s-1.978 9.931-11.577 10.487c-9.599.555-7.518 7.963-7.518 7.963h36.683v-17.756l-17.588-.694z" fill="#4346D5"/><path d="M296.994 201.985s-2.134 86.353-1.822 90.573l8.965 94.35 23.706.425-2.31-98.189s1.63-27.085 8.384-52.235a189.327 189.327 0 0 0 6.207-39.446l-43.13 4.522z" fill="#262626"/><path d="M363.156 200.019l.079.004s-.057-1.473-.079-.004z" fill="#333"/><path d="M293.601 154.052c.497 5.658 2.916 40.961 3.393 47.931h65.873c.372-6.286.435-33.523 1.846-45.815 1.347-11.731 5.598-17.855 3.661-21.323-3.165-5.668-11.815-8.943-17.713-9.717-3.602-.472-9.019-.811-9.019-.811s-.459 8.99-11.395 9.491c-14.888.679-13.894-9.491-13.968-9.491-2.409 0-15.75 1.324-18.684 3.84-7.89 6.766-5.049 13.904-3.994 25.895z" fill="#4346D5"/><path d="M308.432 123.542c.073-.009 2.094 7.358 17.863 6.212 10.917-.793 13.58-7.992 13.829-7.992-1.177-.243-3.089-.494-3.611-.764-1.719-.895-2.972-1.984-3.602-4.322-.493-1.829-.745-8.867-.745-12.398l-16.798 3.657c.234 3.983 1.873 13.218-3.871 14.853-.955.269-1.985.518-3.065.754z" fill="#EEBBAB"/><path d="M315.95 115.767c6.622.506 15.129-2.203 16.745-10.763l1.458-7.725c1.616-8.56-1.715-16.322-10.032-17.796-8.319-1.474-15.847 4.363-17.463 12.923l-.645 3.42c-.622 3.285-1.879 19.037 9.937 19.941z" fill="#EEBBAB"/><path d="M309.809 107.907c1.189-5.787 1.734-9.648 1.671-13.721-1.675-2.844-1.234-6.112-.854-7.523a6.611 6.611 0 0 1-3.872.963s2.769-10.767 12.178-13.665c1.731-.652 6.15-1.477 12.017-.697 4.99.663 17.291 4.278 19.048 17.696v.008c.058.444 1.239 12.807 3.593 18.738 3.165 7.974 7.609 10.451 7.497 19.651-.145 11.833-22.599 13.408-36.141 12.524-13.541-.885-21.104-5.201-21.202-13.729-.106-9.555 3.687-8.667 6.065-20.245z" fill="#0A0A0A"/><path d="M364.275 156.154l-1.619 45.824.438.014 1.619-45.823-.438-.015z" fill="#0C0C0C"/><path d="M231.795 157.059l-6.509-9.023a1.78 1.78 0 0 0-.541-.491 1.849 1.849 0 0 0-2.091.157c-.343.298-.56.709-.609 1.153-.048.444.075.89.346 1.251l1.396 1.935-7.272-4.132c-.8-.473-2.094-.558-2.584.347a1.69 1.69 0 0 0-.249 1.122c.05.391.236.754.527 1.029a.112.112 0 0 0-.018.02l-.007.019-1.234-.729a1.84 1.84 0 0 0-2.21.257 1.738 1.738 0 0 0-.423.65c-.133.388-.124.808.025 1.19.148.383.428.704.793.91l.525.31a.157.157 0 0 0 .004.057 1.856 1.856 0 0 0-1.241.039 1.782 1.782 0 0 0-.918.81 1.745 1.745 0 0 0-.105 1.305c.135.433.434.8.836 1.029l1.305.771a.155.155 0 0 0-.143.103.153.153 0 0 0-.008.06 1.838 1.838 0 0 0-1.106.306c-.325.216-.567.53-.69.893a1.73 1.73 0 0 0 .047 1.17c.151.374.428.687.786.89l11.004 6.505a9.285 9.285 0 0 0 5.126 1.275 9.245 9.245 0 0 0 4.987-1.719 5.77 5.77 0 0 0 2.336-3.72 5.654 5.654 0 0 0-1-4.245l-1.085-1.504z" fill="#EEBBAB"/><path opacity=".2" d="M221.388 154.534a.168.168 0 0 1-.225.053l-6.91-3.938a.157.157 0 0 1-.054-.217.17.17 0 0 1 .098-.074.172.172 0 0 1 .124.014l6.91 3.939c.019.01.036.025.049.041a.169.169 0 0 1 .028.057.166.166 0 0 1-.018.122l-.002.003zm-1.709 2.999a.165.165 0 0 1-.101.071.173.173 0 0 1-.124-.018l-7.71-4.395a.175.175 0 0 1-.048-.042.155.155 0 0 1-.01-.178.165.165 0 0 1 .101-.072.178.178 0 0 1 .126.015l7.709 4.395a.158.158 0 0 1 .06.22l-.003.004zm-1.83 3.259a.163.163 0 0 1-.101.072.165.165 0 0 1-.123-.018l-6.152-3.505a.164.164 0 0 1-.072-.099.156.156 0 0 1 .018-.119.164.164 0 0 1 .099-.073.175.175 0 0 1 .123.013l6.152 3.506a.162.162 0 0 1 .08.161.155.155 0 0 1-.021.059l-.003.003z" fill="#0C0C0C"/><path d="M295.145 130.881l-27.312 39.661-34.485-19.372-12.454 19.764 44.173 27.486a13.193 13.193 0 0 0 9.56 1.704c3.294-.666 6.186-2.558 8.056-5.269l.164-.238 34.161-49.602-21.863-14.134z" fill="#4346D5"/><path d="M295.228 177.134a.226.226 0 0 1-.112-.03.206.206 0 0 1-.106-.193.207.207 0 0 1 .036-.107l7.203-10.389a.22.22 0 0 1 .3-.053c.048.03.081.078.092.132a.207.207 0 0 1-.028.157l-7.203 10.389a.21.21 0 0 1-.079.069.23.23 0 0 1-.103.025z" fill="#0C0C0C"/><path d="M416.819 400H4.392a.347.347 0 0 1-.24-.096.322.322 0 0 1 0-.464.342.342 0 0 1 .24-.096h412.427c.09 0 .176.034.24.096a.324.324 0 0 1 0 .464.348.348 0 0 1-.24.096z" fill="#C4C4C4"/></g><defs><clipPath id="clip0_119_2197"><path fill="#fff" d="M0 0H430.168V400H0z"/></clipPath></defs></svg>